<svg id="圖層_1" data-name="圖層 1" xmlns="http://www.w3.org/2000/svg" viewBox="0 0 535.67 179.04"><defs><style>.cls-1,.cls-2,.cls-5{fill:#8e8dad;}.cls-1{opacity:0.53;}.cls-2,.cls-3{opacity:0.46;}.cls-3{fill:#231815;}.cls-4{fill:none;stroke:#fff;stroke-miterlimit:10;}</style></defs><title>logo</title><rect class="cls-1" x="6.05" y="44.78" width="15" height="15"/><rect class="cls-1" x="6.05" y="64.49" width="15" height="60.24"/><rect class="cls-1" x="168.25" y="44.78" width="15" height="15"/><rect class="cls-1" x="168.25" y="64.49" width="15" height="60.24"/><rect class="cls-1" x="411.12" y="44.78" width="15" height="15"/><rect class="cls-1" x="411.12" y="64.49" width="15" height="60.24"/><path class="cls-2" d="M257.89,292.39v15.45a33,33,0,1,0,15,27.77h0V292.39Zm-17.5,61.1a17.5,17.5,0,1,1,17.5-17.5A17.5,17.5,0,0,1,240.39,353.49Z" transform="translate(-113.82 -243.66)"/><path class="cls-2" d="M345.59,374.73H336.2v10A20.66,20.66,0,1,0,345.59,402c0-.08,0-.16,0-.24h0Zm-20.35,38.58a11,11,0,1,1,11-11A11,11,0,0,1,325.24,413.31Z" transform="translate(-113.82 -243.66)"/><path class="cls-2" d="M251.08,381.53a20.59,20.59,0,1,0,20.58,20.59A20.58,20.58,0,0,0,251.08,381.53Zm.31,31.82a10.92,10.92,0,1,1,10.92-10.92A10.91,10.91,0,0,1,251.39,413.35Z" transform="translate(-113.82 -243.66)"/><path class="cls-1" d="M402.87,352.91h0v0Z" transform="translate(-113.82 -243.66)"/><path class="cls-2" d="M443.89,302.36V348a17.49,17.49,0,0,1-26-1V302.39h-15v50.52a33,33,0,0,0,41,12.76v2.48h15V302.36Z" transform="translate(-113.82 -243.66)"/><path class="cls-3" d="M200.87,322.39h-.08a1.54,1.54,0,0,0,.08.19Z" transform="translate(-113.82 -243.66)"/><path class="cls-2" d="M598.7,342.15a17.5,17.5,0,1,1,.09-12.27H614.4a33,33,0,1,0-.22,12.27Z" transform="translate(-113.82 -243.66)"/><path class="cls-2" d="M218.73,406.15a11,11,0,1,1,.05-7.74h9.85a20.79,20.79,0,1,0-.14,7.74Z" transform="translate(-113.82 -243.66)"/><rect class="cls-1" x="267.36" y="124.73" width="15"/><path class="cls-4" d="M500.37,368.89" transform="translate(-113.82 -243.66)"/><polygon class="cls-2" points="499.22 48.66 506.59 48.66 535.67 0 529.01 0 499.22 48.66"/><path class="cls-2" d="M128.89,396.18a11,11,0,0,1,8.91-4.55,10.89,10.89,0,0,1,5,1.26l6.76-7.4a20.65,20.65,0,0,0-20.72-2.07v-2.63h-9.36l-.17.23-5.54,7.39h5.54V422.7h9.53V396.18Z" transform="translate(-113.82 -243.66)"/><path class="cls-2" d="M297.72,381.24a20.78,20.78,0,0,0-8.6,1.87v-2.62h-9.35l-.17.22-5.55,7.45h5.55V422.7h9.52V395.87a11,11,0,0,1,14-3.29l6.77-7.4A20.71,20.71,0,0,0,297.72,381.24Z" transform="translate(-113.82 -243.66)"/><path class="cls-2" d="M184.73,394.2,182.67,398" transform="translate(-113.82 -243.66)"/><path class="cls-2" d="M185.83,398" transform="translate(-113.82 -243.66)"/><line class="cls-2" x1="68.86" y1="154.31" x2="68.61" y2="154.76"/><path class="cls-2" d="M185.93,398.41c0-.15-.07-.29-.1-.45" transform="translate(-113.82 -243.66)"/><path class="cls-2" d="M184.74,394.18h0v0Z" transform="translate(-113.82 -243.66)"/><path class="cls-2" d="M176,406.15A11,11,0,1,1,173.08,394l-2.8,4-2.41,3.43h12.94l1.62-3,.24-.45,2.06-3.76v0A20.79,20.79,0,0,0,145,398a20.46,20.46,0,0,0-.39,3.93,20.81,20.81,0,0,0,41.18,4.26Z" transform="translate(-113.82 -243.66)"/><path class="cls-2" d="M514.72,317.42V302.36H474.24v.11l-1.52,2-7.43,9.71h7.43l1.52,0s-5.82,11.36-1,19.29c6.06,10,16.69,7.76,22.54,10.93,5.38,3.48,1.46,9,1.46,9H470.83v15.05h29c8-2.68,13-8.9,13.39-21.78-.2-7.67-3.18-17.88-24.19-17.54-4-2.64-2.77-10.41-.37-11.65" transform="translate(-113.82 -243.66)"/><path class="cls-2" d="M379.21,390.11v-9.62H353.33v.07l-1,1.27-4.75,6.2h5.72s-3.72,7.26-.63,12.34c3.88,6.36,10.67,4.95,14.41,7,3.44,2.23.94,5.74.94,5.74H351.16v9.62h18.53c5.14-1.72,8.29-5.69,8.56-13.93-.13-4.9-2-11.43-15.46-11.21-2.57-1.69-1.78-6.65-.24-7.45" transform="translate(-113.82 -243.66)"/><polygon class="cls-2" points="185.46 70.43 185.46 70.43 185.74 70.05 185.46 70.43"/><path class="cls-1" d="M396.09,318.39a31.23,31.23,0,0,0-2.37-3,33,33,0,0,0-42.78-5.6,33,33,0,0,0-29-4.35v-3.05H308.22l-1.52,2h0l-7.14,9.33-.28.37-.23.31h7.86v54h15V323.48A17.54,17.54,0,0,1,345,325v43.38h15V323.24a19,19,0,0,1,1.69-1,17.44,17.44,0,0,1,19.53,2.5v43.63h15V318.51Z" transform="translate(-113.82 -243.66)"/><polygon class="cls-2" points="22.55 70.05 22.27 70.43 22.28 70.43 23.05 69.41 22.55 70.05"/><path class="cls-2" d="M200.79,322.39a33.07,33.07,0,0,0-41.19-17.07v-2.93H145l-1.52,2h0l-6.65,8.69-.76,1-.23.31h8.73v54h15V323.93a17.47,17.47,0,0,1,26.2,3v41.45h15V348.66l.07-26.08A1.54,1.54,0,0,1,200.79,322.39Z" transform="translate(-113.82 -243.66)"/><path class="cls-5" d="M499,346.61" transform="translate(-113.82 -243.66)"/></svg>