<svg xmlns="http://www.w3.org/2000/svg" viewBox="0 0 20.8 29.81"><defs><style>.cls-1{fill:#ffe23f;}</style></defs><title>資產 2</title><g id="圖層_2" data-name="圖層 2"><g id="圖層_1-2" data-name="圖層 1"><path class="cls-1" d="M5.44,0a.31.31,0,0,0-.31.31v9.83a.31.31,0,0,0,.31.31h9.92a.31.31,0,0,0,.31-.31V.31A.31.31,0,0,0,15.36,0ZM6.5,1.05h7.8a.31.31,0,0,1,.31.31V9.09a.31.31,0,0,1-.31.31H6.5a.31.31,0,0,1-.31-.31V1.36A.31.31,0,0,1,6.5,1.05Z"/><path class="cls-1" d="M.53,12.1a.52.52,0,0,0-.53.52V29.5a.31.31,0,0,0,.31.31H20.49a.31.31,0,0,0,.31-.31V12.4a.3.3,0,0,0-.31-.3Zm.53,1.05H19.43a.31.31,0,0,1,.31.31v15a.31.31,0,0,1-.31.31H1.37a.31.31,0,0,1-.31-.31V13.15Z"/></g></g></svg>