<svg xmlns="http://www.w3.org/2000/svg" viewBox="0 0 20.04 20.17"><defs><style>.cls-1{fill:#ffe23f;}</style></defs><title>資產 5</title><g id="圖層_2" data-name="圖層 2"><g id="圖層_1-2" data-name="圖層 1"><path class="cls-1" d="M19,20.11l-8.23-8.23a.24.24,0,0,1,0-.33l.72-.71a.21.21,0,0,1,.29,0L20,19.08a.24.24,0,0,1,0,.33l-.69.7A.24.24,0,0,1,19,20.11Z"/><path class="cls-1" d="M0,11.87V.23A.23.23,0,0,1,.23,0h1a.21.21,0,0,1,.21.2V11.87a.24.24,0,0,1-.24.23h-1A.23.23,0,0,1,0,11.87Z"/><path class="cls-1" d="M10.66,11.87V.23A.23.23,0,0,1,10.89,0h1a.2.2,0,0,1,.2.2V11.87a.23.23,0,0,1-.23.23h-1A.23.23,0,0,1,10.66,11.87Z"/><path class="cls-1" d="M11.87,1.45H.23A.23.23,0,0,1,0,1.21V.2A.2.2,0,0,1,.2,0H11.87a.23.23,0,0,1,.23.23v1A.24.24,0,0,1,11.87,1.45Z"/><path class="cls-1" d="M11.87,12.1H.23A.23.23,0,0,1,0,11.87v-1a.2.2,0,0,1,.2-.2H11.87a.24.24,0,0,1,.23.23v1A.24.24,0,0,1,11.87,12.1Z"/></g></g></svg>