<svg id="圖層_1" data-name="圖層 1" xmlns="http://www.w3.org/2000/svg" viewBox="0 0 23.48 29.75"><defs><style>.cls-1{fill:#f5da47;}</style></defs><title>shopping</title><path class="cls-1" d="M330.75,290.18a4.66,4.66,0,0,1,4.57,4,.37.37,0,0,1-.37.41h-8.4a.37.37,0,0,1-.37-.41A4.66,4.66,0,0,1,330.75,290.18Zm9.53,4.37H337a.37.37,0,0,1-.36-.34,5.89,5.89,0,0,0-11.71,0,.37.37,0,0,1-.36.34h-3.37a.36.36,0,0,0-.37.34L319,318.27a.36.36,0,0,0,.37.39h22.74a.37.37,0,0,0,.37-.4l-1.84-23.37A.38.38,0,0,0,340.28,294.55ZM322,295.82h2.48a.37.37,0,0,1,.37.37v3.52a.29.29,0,0,0,.28.28h.7a.29.29,0,0,0,.29-.28v-3.52a.36.36,0,0,1,.37-.37H335a.37.37,0,0,1,.37.37v3.52a.29.29,0,0,0,.28.28h.7a.29.29,0,0,0,.29-.28v-3.52a.36.36,0,0,1,.37-.37h2.2a.37.37,0,0,1,.37.34L341.17,317a.38.38,0,0,1-.37.4h-20a.37.37,0,0,1-.37-.4L322,295.82Z" transform="translate(-319.01 -288.92)"/></svg>